#!OML:ASF X:\für Bonn\!DataBase\2005_08_10_Bjorn_Final\c3d\bjorn.ASF
:FULLY-SPECIFIED
:DEGREES
77
root 0.467196 10.1436 3.69238 -187.337 -3.00697 178.173
lowerback 28.0324 2.11464 1.57171
upperback 12.453 -0.267248 -0.966904
thorax -1.52468 -1.42754 -1.84204
lowerneck -25.1815 -1.2341 2.07437
upperneck 0.270553 -3.21082 -0.555718
head 3.86654 -2.03258 -0.851482
rclavicle 6.70898e-016 -7.67806e-015
rhumerus 84.3318 -4.83834 -75.7536
rradius 7.08686
rwrist 49.4359
rhand -13.6214 9.08305
rfingers 7.12502
rthumb 12.4941 -20.5234
lclavicle 6.70898e-016 -7.67806e-015
lhumerus 84.1814 -5.16253 49.7655
lradius 14.234
lwrist -34.1436
lhand -20.5275 -9.63547
lfingers 7.12502
lthumb 5.8305 20.2643
rfemur -67.0074 -43.2789 -0.637197
rtibia 137.819
rfoot -31.7959 51.0039
rtoes -19.2359
lfemur -67.2252 33.1938 -9.79583
ltibia 139.184
lfoot -30.5409 -33.1481
ltoes -27.4037
78
root 0.468871 9.95381 3.68327 -187.593 -3.06794 178.092
lowerback 28.3701 2.13243 1.61627
upperback 12.5909 -0.309614 -0.9751
thorax -1.52343 -1.477 -1.8646
lowerneck -25.5495 -1.25185 2.03943
upperneck 0.170011 -3.27729 -0.529184
head 3.88429 -2.08276 -0.848896
rclavicle 2.68359e-015 2.93207e-015
rhumerus 84.4084 -4.91014 -75.7522
rradius 7.00174
rwrist 49.6533
rhand -13.7851 9.10576
rfingers 7.12502
rthumb 12.3363 -20.5103
lclavicle 2.68359e-015 2.93207e-015
lhumerus 84.1783 -5.0441 49.5401
lradius 14.2663
lwrist -33.7173
lhand -20.2873 -9.64824
lfingers 7.12502
lthumb 6.06248 20.245
rfemur -66.8902 -47.0725 -2.32665
rtibia 139.367
rfoot -33.7076 52.2172
rtoes -20.1134
lfemur -67.6255 36.1306 -9.09843
ltibia 140.678
lfoot -31.0737 -34.2572
ltoes -27.0292
79
root 0.47121 9.7713 3.67233 -187.816 -3.1473 178.026
lowerback 28.6383 2.14561 1.67106
upperback 12.7554 -0.359334 -0.976148
thorax -1.45952 -1.53056 -1.88432
lowerneck -26.0144 -1.25297 1.99845
upperneck 0.11919 -3.32692 -0.472116
head 3.93148 -2.12301 -0.835916
rclavicle -1.2424e-016 6.18717e-015
rhumerus 84.5094 -4.97364 -75.7558
rradius 6.94272
rwrist 49.8305
rhand -13.9476 9.10834
rfingers 7.12502
rthumb 12.1796 -20.5171
lclavicle -1.2424e-016 6.18717e-015
lhumerus 84.1806 -4.91901 49.6185
lradius 14.2785
lwrist -33.7175
lhand -20.0584 -9.69181
lfingers 7.12502
lthumb 6.28348 20.195
rfemur -66.4699 -51.1141 -4.31571
rtibia 140.853
rfoot -36.393 53.2116
rtoes -21.6814
lfemur -67.9544 39.3166 -8.2925
ltibia 142.109
lfoot -31.7868 -35.3265
ltoes -26.817
80
root 0.473702 9.59623 3.65967 -187.977 -3.20357 177.977
lowerback 28.8168 2.16769 1.70998
upperback 12.9117 -0.391339 -0.954928
thorax -1.36303 -1.57245 -1.87636
lowerneck -26.4504 -1.26693 1.92873
upperneck 0.02266 -3.38827 -0.414013
head 3.96002 -2.17146 -0.818626
rclavicle -1.75055e-014 1.45672e-014
rhumerus 84.5832 -5.00444 -75.7345
rradius 6.90794
rwrist 50.0093
rhand -14.0881 9.07664
rfingers 7.12502
rthumb 12.0442 -20.5568
lclavicle -1.75055e-014 1.45672e-014
lhumerus 84.1765 -4.79249 49.774
lradius 14.2101
lwrist -33.9883
lhand -19.9792 -9.67844
lfingers 7.12502
lthumb 6.35985 20.2061
rfemur -65.6532 -55.3638 -6.72133
rtibia 142.285
rfoot -39.7754 54.0177
rtoes -23.4488
lfemur -68.1663 42.8961 -7.30358
ltibia 143.479
lfoot -32.7784 -36.4021
ltoes -26.877
81
root 0.476587 9.43253 3.6482 -188.131 -3.27937 177.935
lowerback 28.9873 2.1716 1.74903
upperback 13.0832 -0.452358 -0.924031
thorax -1.24638 -1.63101 -1.85005
lowerneck -26.89 -1.25579 1.85738
upperneck -0.0993071 -3.41914 -0.380581
head 3.98042 -2.20915 -0.805841
rclavicle -6.37043e-015 1.79186e-014
rhumerus 84.6602 -4.99936 -75.7139
rradius 6.90874
rwrist 50.1202
rhand -14.2226 9.0585
rfingers 7.12502
rthumb 11.9145 -20.5825
lclavicle -6.37043e-015 1.79186e-014
lhumerus 84.1668 -4.62467 49.948
lradius 14.1277
lwrist -34.396
lhand -19.8849 -9.60383
lfingers 7.12502
lthumb 6.45089 20.2779
rfemur -64.2599 -59.5573 -9.63022
rtibia 143.613
rfoot -43.5256 54.5453
rtoes -25.2456
lfemur -68.26 46.4865 -6.25129
ltibia 144.757
lfoot -34.147 -37.1322
ltoes -27.5593
82
root 0.478792 9.28367 3.64059 -188.415 -3.35264 177.908
lowerback 29.4048 2.18347 1.82061
upperback 13.2105 -0.498378 -0.883056
thorax -1.28834 -1.68586 -1.83117
lowerneck -27.1285 -1.24395 1.8811
upperneck -0.325294 -3.46219 -0.470591
head 3.9368 -2.26123 -0.844784
rclavicle 3.23646e-015 -1.78906e-015
rhumerus 84.6153 -4.97609 -75.6673
rradius 6.94689
rwrist 50.1968
rhand -14.3013 8.99463
rfingers 7.12502
rthumb 11.8386 -20.6507
lclavicle 3.23646e-015 -1.78906e-015
lhumerus 84.109 -4.55033 50.1215
lradius 14.053
lwrist -34.7017
lhand -19.5957 -9.61431
lfingers 7.12502
lthumb 6.7301 20.2587
rfemur -61.833 -63.3555 -13.4197
rtibia 144.786
rfoot -47.2202 54.9054
rtoes -26.8205
lfemur -67.8522 50.0072 -4.83955
ltibia 145.904
lfoot -35.5962 -37.7983
ltoes -28.0866
83
root 0.48141 9.14966 3.6364 -188.74 -3.42084 177.884
lowerback 29.9207 2.19928 1.91888
upperback 13.3302 -0.537961 -0.844924
thorax -1.38032 -1.73969 -1.83056
lowerneck -27.2881 -1.22147 1.97391
upperneck -0.640544 -3.51203 -0.649914
head 3.85133 -2.3265 -0.921831
rclavicle 8.85834e-015 -5.19325e-015
rhumerus 84.5098 -4.96388 -75.6161
rradius 7.04465
rwrist 50.1445
rhand -14.3047 8.89584
rfingers 7.12502
rthumb 11.8353 -20.7497
lclavicle 8.85834e-015 -5.19325e-015
lhumerus 84.0909 -4.51008 50.2911
lradius 13.9599
lwrist -34.8195
lhand -19.1688 -9.62078
lfingers 7.12502
lthumb 7.14226 20.2387
rfemur -58.4986 -66.6667 -18.0149
rtibia 145.822
rfoot -50.5479 55.1907
rtoes -27.8709
lfemur -67.1706 53.264 -3.27957
ltibia 146.928
lfoot -37.2027 -38.1315
ltoes -29.0107
